#Comment line ignore any data following # character 
#Hierarchical Translation and Rotation (.htr) file 
[Header]	
#Header keywords are followed by a single value 
FileType HTR		#Single word string
DataType HTRS		#Translation followed by rotation and scale data
FileVersion 1		#integer
NumSegments 84		#integer
NumFrames 2		#integer
DataFrameRate 30		#integer, data frame rate in this file
EulerRotationOrder ZYX
CalibrationUnits mm
RotationUnits Degrees
GlobalAxisofGravity Y
BoneLengthAxis Y
ScaleFactor 1.00
[SegmentNames&Hierarchy]
#CHILD	PARENT
MASTER GLOBAL
root MASTER
chest root
L_mid_tent01 root
R_mid_tent01 root
spine01 root
Bip01_Neck chest
L_humerus chest
R_humerus chest
weapon_bone chest
Bip01_Head Bip01_Neck
eye_left_bone Bip01_Head
eye_right_bone Bip01_Head
L_forearm L_humerus
L_front_hand L_forearm
L_weapon_bone L_forearm
L_front_hand01_01 L_front_hand
L_front_hand02_01 L_front_hand
L_front_hand03_01 L_front_hand
L_front_hand01_02 L_front_hand01_01
L_front_hand02_02 L_front_hand02_01
L_front_hand03_02 L_front_hand03_01
R_forearm R_humerus
R_front_hand R_forearm
R_weapon_bone R_forearm
R_front_hand01_01 R_front_hand
R_front_hand02_01 R_front_hand
R_front_hand03_01 R_front_hand
R_front_hand01_02 R_front_hand01_01
R_front_hand02_02 R_front_hand02_01
R_front_hand03_02 R_front_hand03_01
null_rope01_connect L_mid_tent01
Rope1_Seg01 null_rope01_connect
Rope1_Seg02 Rope1_Seg01
Rope1_Seg03 Rope1_Seg02
Rope1_Seg04 Rope1_Seg03
Rope1_Seg05 Rope1_Seg04
Rope1_Seg06 Rope1_Seg05
Rope1_Seg07 Rope1_Seg06
Rope1_Seg09 Rope1_Seg07
L_mid_hand01 Rope1_Seg09
L_mid_hand02 Rope1_Seg09
L_mid_hand03 Rope1_Seg09
null_rope02_connect R_mid_tent01
Rope2_Seg01 null_rope02_connect
Rope2_Seg02 Rope2_Seg01
Rope2_Seg03 Rope2_Seg02
Rope2_Seg04 Rope2_Seg03
Rope2_Seg05 Rope2_Seg04
Rope2_Seg06 Rope2_Seg05
Rope2_Seg07 Rope2_Seg06
Rope2_Seg09 Rope2_Seg07
R_mid_hand01 Rope2_Seg09
R_mid_hand02 Rope2_Seg09
R_mid_hand03 Rope2_Seg09
spine02 spine01
spine03 spine02
pelvis spine03
null_rope03_connect pelvis
null_rope04_connect pelvis
Rope3_Seg01 null_rope03_connect
Rope3_Seg02 Rope3_Seg01
Rope3_Seg03 Rope3_Seg02
Rope3_Seg04 Rope3_Seg03
Rope3_Seg05 Rope3_Seg04
Rope3_Seg06 Rope3_Seg05
Rope3_Seg07 Rope3_Seg06
Rope3_Seg08 Rope3_Seg07
Rope3_Seg09 Rope3_Seg08
R_rear_hand01 Rope3_Seg09
R_rear_hand02 Rope3_Seg09
R_rear_hand03 Rope3_Seg09
Rope4_Seg01 null_rope04_connect
Rope4_Seg02 Rope4_Seg01
Rope4_Seg03 Rope4_Seg02
Rope4_Seg04 Rope4_Seg03
Rope4_Seg05 Rope4_Seg04
Rope4_Seg06 Rope4_Seg05
Rope4_Seg07 Rope4_Seg06
Rope4_Seg08 Rope4_Seg07
Rope4_Seg09 Rope4_Seg08
L_rear_hand01 Rope4_Seg09
L_rear_hand02 Rope4_Seg09
L_rear_hand03 Rope4_Seg09
[BasePosition]
#SegmentName Tx, Ty, Tz, Rx, Ry, Rz, BoneLength
MASTER 0.000000 0.000000 0.000000 -90.000000 0.000000 0.000000 10.000000 
root 0.000000 0.000000 0.000000 0.000000 0.000000 0.000000 10.000000 
chest 0.000000 0.000000 0.000000 0.000000 0.000000 0.000000 10.000000 
L_mid_tent01 0.000000 0.000000 0.000000 0.000000 0.000000 0.000000 10.000000 
R_mid_tent01 0.000000 0.000000 0.000000 0.000000 0.000000 0.000000 10.000000 
spine01 0.000000 0.000000 0.000000 0.000000 0.000000 0.000000 10.000000 
Bip01_Neck 0.000000 0.000000 0.000000 0.000000 0.000000 0.000000 10.000000 
L_humerus 0.000000 0.000000 0.000000 0.000000 0.000000 0.000000 10.000000 
R_humerus 0.000000 0.000000 0.000000 0.000000 0.000000 0.000000 10.000000 
weapon_bone 0.000000 0.000000 0.000000 0.000000 0.000000 0.000000 10.000000 
Bip01_Head 0.000000 0.000000 0.000000 0.000000 0.000000 0.000000 10.000000 
eye_left_bone 0.000000 0.000000 0.000000 0.000000 0.000000 0.000000 10.000000 
eye_right_bone 0.000000 0.000000 0.000000 0.000000 0.000000 0.000000 10.000000 
L_forearm 0.000000 0.000000 0.000000 0.000000 0.000000 0.000000 10.000000 
L_front_hand 0.000000 0.000000 0.000000 0.000000 0.000000 0.000000 10.000000 
L_weapon_bone 0.000000 0.000000 0.000000 0.000000 0.000000 0.000000 10.000000 
L_front_hand01_01 0.000000 0.000000 0.000000 0.000000 0.000000 0.000000 10.000000 
L_front_hand02_01 0.000000 0.000000 0.000000 0.000000 0.000000 0.000000 10.000000 
L_front_hand03_01 0.000000 0.000000 0.000000 0.000000 0.000000 0.000000 10.000000 
L_front_hand01_02 0.000000 0.000000 0.000000 0.000000 0.000000 0.000000 10.000000 
L_front_hand02_02 0.000000 0.000000 0.000000 0.000000 0.000000 0.000000 10.000000 
L_front_hand03_02 0.000000 0.000000 0.000000 0.000000 0.000000 0.000000 10.000000 
R_forearm 0.000000 0.000000 0.000000 0.000000 0.000000 0.000000 10.000000 
R_front_hand 0.000000 0.000000 0.000000 0.000000 0.000000 0.000000 10.000000 
R_weapon_bone 0.000000 0.000000 0.000000 0.000000 0.000000 0.000000 10.000000 
R_front_hand01_01 0.000000 0.000000 0.000000 0.000000 0.000000 0.000000 10.000000 
R_front_hand02_01 0.000000 0.000000 0.000000 0.000000 0.000000 0.000000 10.000000 
R_front_hand03_01 0.000000 0.000000 0.000000 0.000000 0.000000 0.000000 10.000000 
R_front_hand01_02 0.000000 0.000000 0.000000 0.000000 0.000000 0.000000 10.000000 
R_front_hand02_02 0.000000 0.000000 0.000000 0.000000 0.000000 0.000000 10.000000 
R_front_hand03_02 0.000000 0.000000 0.000000 0.000000 0.000000 0.000000 10.000000 
null_rope01_connect 0.000000 0.000000 0.000000 0.000000 0.000000 0.000000 10.000000 
Rope1_Seg01 0.000000 0.000000 0.000000 0.000000 0.000000 0.000000 10.000000 
Rope1_Seg02 0.000000 0.000000 0.000000 0.000000 0.000000 0.000000 10.000000 
Rope1_Seg03 0.000000 0.000000 0.000000 0.000000 0.000000 0.000000 10.000000 
Rope1_Seg04 0.000000 0.000000 0.000000 0.000000 0.000000 0.000000 10.000000 
Rope1_Seg05 0.000000 0.000000 0.000000 0.000000 0.000000 0.000000 10.000000 
Rope1_Seg06 0.000000 0.000000 0.000000 0.000000 0.000000 0.000000 10.000000 
Rope1_Seg07 0.000000 0.000000 0.000000 0.000000 0.000000 0.000000 10.000000 
Rope1_Seg09 0.000000 0.000000 0.000000 0.000000 0.000000 0.000000 10.000000 
L_mid_hand01 0.000000 0.000000 0.000000 0.000000 0.000000 0.000000 10.000000 
L_mid_hand02 0.000000 0.000000 0.000000 0.000000 0.000000 0.000000 10.000000 
L_mid_hand03 0.000000 0.000000 0.000000 0.000000 0.000000 0.000000 10.000000 
null_rope02_connect 0.000000 0.000000 0.000000 0.000000 0.000000 0.000000 10.000000 
Rope2_Seg01 0.000000 0.000000 0.000000 0.000000 0.000000 0.000000 10.000000 
Rope2_Seg02 0.000000 0.000000 0.000000 0.000000 0.000000 0.000000 10.000000 
Rope2_Seg03 0.000000 0.000000 0.000000 0.000000 0.000000 0.000000 10.000000 
Rope2_Seg04 0.000000 0.000000 0.000000 0.000000 0.000000 0.000000 10.000000 
Rope2_Seg05 0.000000 0.000000 0.000000 0.000000 0.000000 0.000000 10.000000 
Rope2_Seg06 0.000000 0.000000 0.000000 0.000000 0.000000 0.000000 10.000000 
Rope2_Seg07 0.000000 0.000000 0.000000 0.000000 0.000000 0.000000 10.000000 
Rope2_Seg09 0.000000 0.000000 0.000000 0.000000 0.000000 0.000000 10.000000 
R_mid_hand01 0.000000 0.000000 0.000000 0.000000 0.000000 0.000000 10.000000 
R_mid_hand02 0.000000 0.000000 0.000000 0.000000 0.000000 0.000000 10.000000 
R_mid_hand03 0.000000 0.000000 0.000000 0.000000 0.000000 0.000000 10.000000 
spine02 0.000000 0.000000 0.000000 0.000000 0.000000 0.000000 10.000000 
spine03 0.000000 0.000000 0.000000 0.000000 0.000000 0.000000 10.000000 
pelvis 0.000000 0.000000 0.000000 0.000000 0.000000 0.000000 10.000000 
null_rope03_connect 0.000000 0.000000 0.000000 0.000000 0.000000 0.000000 10.000000 
null_rope04_connect 0.000000 0.000000 0.000000 0.000000 0.000000 0.000000 10.000000 
Rope3_Seg01 0.000000 0.000000 0.000000 0.000000 0.000000 0.000000 10.000000 
Rope3_Seg02 0.000000 0.000000 0.000000 0.000000 0.000000 0.000000 10.000000 
Rope3_Seg03 0.000000 0.000000 0.000000 0.000000 0.000000 0.000000 10.000000 
Rope3_Seg04 0.000000 0.000000 0.000000 0.000000 0.000000 0.000000 10.000000 
Rope3_Seg05 0.000000 0.000000 0.000000 0.000000 0.000000 0.000000 10.000000 
Rope3_Seg06 0.000000 0.000000 0.000000 0.000000 0.000000 0.000000 10.000000 
Rope3_Seg07 0.000000 0.000000 0.000000 0.000000 0.000000 0.000000 10.000000 
Rope3_Seg08 0.000000 0.000000 0.000000 0.000000 0.000000 0.000000 10.000000 
Rope3_Seg09 0.000000 0.000000 0.000000 0.000000 0.000000 0.000000 10.000000 
R_rear_hand01 0.000000 0.000000 0.000000 0.000000 0.000000 0.000000 10.000000 
R_rear_hand02 0.000000 0.000000 0.000000 0.000000 0.000000 0.000000 10.000000 
R_rear_hand03 0.000000 0.000000 0.000000 0.000000 0.000000 0.000000 10.000000 
Rope4_Seg01 0.000000 0.000000 0.000000 0.000000 0.000000 0.000000 10.000000 
Rope4_Seg02 0.000000 0.000000 0.000000 0.000000 0.000000 0.000000 10.000000 
Rope4_Seg03 0.000000 0.000000 0.000000 0.000000 0.000000 0.000000 10.000000 
Rope4_Seg04 0.000000 0.000000 0.000000 0.000000 0.000000 0.000000 10.000000 
Rope4_Seg05 0.000000 0.000000 0.000000 0.000000 0.000000 0.000000 10.000000 
Rope4_Seg06 0.000000 0.000000 0.000000 0.000000 0.000000 0.000000 10.000000 
Rope4_Seg07 0.000000 0.000000 0.000000 0.000000 0.000000 0.000000 10.000000 
Rope4_Seg08 0.000000 0.000000 0.000000 0.000000 0.000000 0.000000 10.000000 
Rope4_Seg09 0.000000 0.000000 0.000000 0.000000 0.000000 0.000000 10.000000 
L_rear_hand01 0.000000 0.000000 0.000000 0.000000 0.000000 0.000000 10.000000 
L_rear_hand02 0.000000 0.000000 0.000000 0.000000 0.000000 0.000000 10.000000 
L_rear_hand03 0.000000 0.000000 0.000000 0.000000 0.000000 0.000000 10.000000 
#Beginning of Data. Separated by tabs
#Fr	Tx	Ty	Tz	Rx	Ry	Rz	SF
[MASTER]
28 1897.538696 -5455.139160 0.000000 0.000554 -0.002281 -117.299210 5775.742188
29 1929.566040 -5670.910156 0.000000 0.000562 -0.002279 -117.727272 5990.196289
[root]
28 -62.821945 103.941994 1134.810669 -87.374115 -4.841010 179.668411 1141.291260
29 -62.822475 103.348244 1146.235718 -86.707306 -4.773234 179.789200 1152.598755
[chest]
28 -84.512650 -34.090519 0.000000 -1.338711 -0.090288 156.322800 91.129311
29 -84.512650 -34.090519 0.000000 -0.901678 -0.367334 156.350677 91.129311
[L_mid_tent01]
28 23.228750 24.509907 -223.761200 -10.616116 10.187679 -3.705188 226.294907
29 23.228750 24.509907 -223.761200 -12.926812 5.759353 -8.446658 226.294907
[R_mid_tent01]
28 23.228794 24.509907 226.238495 -162.352600 -20.693523 -4.811518 228.744751
29 23.228794 24.509907 226.238495 -163.307114 -22.862732 -5.869270 228.744751
[spine01]
28 -0.361383 -0.195265 0.000000 0.001815 0.001488 11.320962 0.410763
29 -0.361383 -0.195265 0.000000 0.001815 0.001488 11.320962 0.410763
[Bip01_Neck]
28 165.484543 71.581718 0.000119 175.896118 1.177290 24.871183 180.302734
29 165.484543 71.581718 0.000119 175.896118 1.177290 24.871183 180.302734
[L_humerus]
28 -13.983130 -135.272980 -120.471481 69.626144 80.276581 170.348083 181.680161
29 -13.983130 -135.272980 -120.471481 43.333630 78.698799 144.877457 181.680161
[R_humerus]
28 -13.983309 -135.273102 125.287651 -145.388260 -83.042549 -116.256065 184.909012
29 -13.983309 -135.273102 125.287651 -107.615776 -87.366043 -153.563217 184.909012
[weapon_bone]
28 235.964890 -300.705902 0.000000 0.000000 -89.951546 -128.212341 382.234833
29 235.964890 -300.705902 0.000000 0.000000 -89.951546 -128.212341 382.234833
[Bip01_Head]
28 201.313736 211.516754 15.929725 -7.178055 4.331003 -64.489616 292.438568
29 201.313721 211.516754 15.929725 -6.336443 4.701828 -64.503075 292.438538
[eye_left_bone]
28 -24.626970 125.451866 -64.772606 0.000000 -90.000000 -99.840431 143.318359
29 -24.626970 125.451866 -64.772606 0.000000 -90.000000 -99.840431 143.318359
[eye_right_bone]
28 -24.626970 125.451866 64.327362 0.000000 -89.965736 80.156380 143.117676
29 -24.626970 125.451866 64.327362 0.000000 -89.965736 80.156380 143.117676
[L_forearm]
28 322.776093 0.000000 -0.000119 0.000357 -0.002320 -107.506004 322.776093
29 322.776093 0.000000 -0.000119 0.000357 -0.002320 -107.506004 322.776093
[L_front_hand]
28 241.149185 -0.042021 -3.300071 -179.431961 -2.195943 -5.942918 241.171753
29 241.149185 -0.042021 -3.300071 -179.431961 -2.195943 -5.942918 241.171753
[L_weapon_bone]
28 156.183838 0.000000 0.000000 0.000014 0.000007 0.000001 156.183838
29 156.183838 0.000000 0.000000 0.000014 0.000007 0.000001 156.183838
[L_front_hand01_01]
28 86.095154 20.947098 -0.655860 0.139491 -0.584553 24.181786 88.609184
29 86.095154 20.947098 -0.655860 0.139491 -0.584553 24.181786 88.609184
[L_front_hand02_01]
28 86.935165 -11.437475 24.513514 119.190460 -21.905655 -12.119137 91.046425
29 86.935165 -11.437475 24.513514 119.190460 -21.905655 -12.119137 91.046425
[L_front_hand03_01]
28 86.637497 -14.123976 -20.424902 -120.437630 20.554031 -14.327168 90.126129
29 86.637497 -14.123976 -20.424902 -120.437630 20.554031 -14.327168 90.126129
[L_front_hand01_02]
28 71.020905 -0.000179 0.000030 0.000334 -0.002323 -106.379684 71.020905
29 71.020905 -0.000179 0.000030 0.000334 -0.002323 -106.379684 71.020905
[L_front_hand02_02]
28 71.020927 -0.000119 0.000060 0.000334 -0.002323 -106.379684 71.020927
29 71.020927 -0.000119 0.000060 0.000334 -0.002323 -106.379684 71.020927
[L_front_hand03_02]
28 71.020905 -0.000060 0.000060 0.000334 -0.002323 -106.379684 71.020905
29 71.020905 -0.000060 0.000060 0.000334 -0.002323 -106.379684 71.020905
[R_forearm]
28 322.776428 -0.000060 0.000030 0.196737 0.083011 -114.368637 322.776428
29 322.776428 -0.000060 0.000030 0.196737 0.083011 -114.368637 322.776428
[R_front_hand]
28 238.847015 -0.006795 2.210259 -0.341870 1.692706 -0.151780 238.857239
29 238.847015 -0.006795 2.210259 -0.341870 1.692706 -0.151780 238.857239
[R_weapon_bone]
28 155.664093 0.002503 -0.000030 0.003487 0.001180 -90.988930 155.664078
29 155.664093 0.002503 -0.000030 0.003487 0.001180 -90.988930 155.664078
[R_front_hand01_01]
28 87.624611 14.231146 22.918642 -119.218056 -22.033409 12.303375 91.683487
29 87.624611 14.231146 22.918642 -119.218056 -22.033409 12.303375 91.683487
[R_front_hand02_01]
28 89.356956 14.367283 -19.491137 120.545532 20.947184 14.823009 92.579636
29 89.356956 14.367283 -19.491137 120.545532 20.947184 14.823009 92.579636
[R_front_hand03_01]
28 87.286232 -22.307278 -0.143439 -0.231628 -0.392922 -24.567768 90.091743
29 87.286232 -22.307278 -0.143439 -0.231628 -0.392922 -24.567768 90.091743
[R_front_hand01_02]
28 71.020905 0.000060 0.000119 0.002323 -0.000334 106.381714 71.020905
29 71.020905 0.000060 0.000119 0.002323 -0.000334 106.381714 71.020905
[R_front_hand02_02]
28 71.020844 -0.000030 -0.000119 0.002323 -0.000334 106.381714 71.020836
29 71.020844 -0.000030 -0.000119 0.002323 -0.000334 106.381714 71.020836
[R_front_hand03_02]
28 71.020905 0.000000 0.000030 0.002323 -0.000334 106.381714 71.020905
29 71.020905 0.000000 0.000030 0.002323 -0.000334 106.381714 71.020905
[null_rope01_connect]
28 328.732483 0.000000 -0.000238 100.154755 50.577225 15.864732 328.732483
29 328.732483 0.000000 -0.000238 103.435898 53.071423 23.743999 328.732483
[Rope1_Seg01]
28 0.000139 0.000000 -0.000008 117.585861 -21.667664 -37.664307 0.000139
29 0.000144 0.000000 -0.000005 116.052086 -21.141624 -32.711628 0.000144
[Rope1_Seg02]
28 139.999863 -0.000179 0.000000 1.063732 11.155722 -2.255096 139.999863
29 139.999863 -0.000179 0.000000 0.402548 13.659266 -2.934087 139.999863
[Rope1_Seg03]
28 139.999924 0.000060 -0.000060 -0.307768 13.700962 -3.114098 139.999924
29 139.999924 0.000060 -0.000060 -1.570225 15.123659 -3.680007 139.999924
[Rope1_Seg04]
28 139.999924 -0.000060 -0.000119 -2.234604 14.090403 -6.977176 139.999924
29 139.999924 -0.000060 -0.000119 -2.817681 13.280101 -7.702675 139.999924
[Rope1_Seg05]
28 139.999832 0.000119 -0.000060 -2.579003 10.394726 -5.355954 139.999832
29 139.999832 0.000119 -0.000060 -4.589994 10.066923 -0.258687 139.999832
[Rope1_Seg06]
28 139.999954 0.000119 -0.000060 -6.585354 10.621661 4.584726 139.999954
29 139.999954 0.000119 -0.000060 -8.018937 9.485229 9.591995 139.999954
[Rope1_Seg07]
28 139.999985 0.000060 0.000000 -11.179537 14.980330 19.512880 139.999985
29 139.999985 0.000060 0.000000 -7.030097 7.125518 13.658461 139.999985
[Rope1_Seg09]
28 121.602913 0.000119 -0.000089 -89.793175 -1.359789 0.847147 121.602913
29 121.602913 0.000119 -0.000089 -89.793175 -1.359789 0.847147 121.602913
[L_mid_hand01]
28 103.859421 1.038730 8.195221 106.855484 -31.239275 -9.461397 104.187431
29 103.859421 1.038730 8.195221 106.855484 -31.239275 -9.461397 104.187431
[L_mid_hand02]
28 105.572853 -4.139662 -10.864139 -142.331345 25.752670 -28.774628 106.211075
29 105.572853 -4.139662 -10.864139 -142.331345 25.752670 -28.774628 106.211075
[L_mid_hand03]
28 104.641464 17.579376 -3.913581 -16.122810 9.734291 34.223598 106.179977
29 104.641464 17.579376 -3.913581 -16.122810 9.734291 34.223598 106.179977
[null_rope02_connect]
28 328.732849 0.000179 -0.000119 -167.065811 -73.129822 66.120216 328.732849
29 328.732849 0.000179 -0.000119 -172.982178 -74.590271 71.223129 328.732849
[Rope2_Seg01]
28 -0.000148 -0.000015 -0.000015 -79.216270 -29.874004 -74.557678 0.000149
29 -0.000149 -0.000010 -0.000010 -101.312538 -45.192707 -73.560623 0.000150
[Rope2_Seg02]
28 139.999741 -0.000060 -0.000119 -21.828562 -10.242754 -8.012316 139.999756
29 139.999741 -0.000060 -0.000119 -36.530548 -21.516012 -64.706764 139.999756
[Rope2_Seg03]
28 140.000107 0.000030 0.000000 -46.043781 -27.481333 -71.857796 140.000107
29 140.000107 0.000030 0.000000 -6.506751 16.756399 -35.269547 140.000107
[Rope2_Seg04]
28 139.999802 0.000000 -0.000060 -6.961223 23.577749 -36.694916 139.999802
29 139.999802 0.000000 -0.000060 4.348769 0.564188 -16.545509 139.999802
[Rope2_Seg05]
28 139.999985 -0.000060 0.000119 3.559726 4.093900 -10.874751 139.999985
29 139.999985 -0.000060 0.000119 4.455994 -1.211851 -11.607780 139.999985
[Rope2_Seg06]
28 139.999893 -0.000030 -0.000119 3.447485 2.647966 -7.511363 139.999893
29 139.999893 -0.000030 -0.000119 2.470520 -0.524155 -5.933690 139.999893
[Rope2_Seg07]
28 139.999893 0.000060 -0.000060 2.488013 1.475935 -4.509058 139.999893
29 139.999893 0.000060 -0.000060 1.670428 -0.488102 -3.745484 139.999893
[Rope2_Seg09]
28 121.338966 0.000089 -0.000060 33.793236 -1.359788 -0.847141 121.338966
29 121.338966 0.000089 -0.000060 33.793236 -1.359788 -0.847141 121.338966
[R_mid_hand01]
28 104.680779 11.144459 -10.335981 -41.523792 25.424656 28.595957 105.778534
29 104.680779 11.144459 -10.335981 -41.523792 25.424656 28.595957 105.778534
[R_mid_hand02]
28 104.070427 2.443552 8.231699 72.847389 -32.746803 10.013901 104.424065
29 104.070427 2.443552 8.231699 72.847389 -32.746803 10.013901 104.424065
[R_mid_hand03]
28 106.028137 -11.221827 -5.996406 -167.901306 10.259192 -37.009720 106.788818
29 106.028137 -11.221827 -5.996406 -167.901306 10.259192 -37.009720 106.788818
[spine02]
28 129.756927 0.001550 0.000119 0.001147 -1.797837 -7.854275 129.756927
29 129.756927 0.001550 0.000119 0.001147 -1.797837 -7.854274 129.756927
[spine03]
28 79.115631 0.000000 -0.000119 1.459971 -2.848092 23.765963 79.115631
29 79.115631 0.000000 -0.000119 1.459971 -2.848092 23.765965 79.115631
[pelvis]
28 169.435242 0.051022 0.000000 -0.000005 0.000003 -4.322055 169.435257
29 169.435242 0.051022 0.000000 -0.000005 0.000003 -4.322055 169.435257
[null_rope03_connect]
28 -1.257226 -2.466202 137.391083 77.489853 66.074753 -29.340164 137.418976
29 -1.257226 -2.466202 137.391083 76.032845 65.688354 -30.660067 137.418976
[null_rope04_connect]
28 -1.259640 -2.480268 -137.844437 77.489853 66.074753 -29.340164 137.872513
29 -1.259640 -2.480268 -137.844437 76.032845 65.688354 -30.660067 137.872513
[Rope3_Seg01]
28 0.000139 0.000000 -0.000008 -131.532806 6.542237 66.586731 0.000139
29 0.000144 0.000000 -0.000005 -132.511230 7.695811 77.252960 0.000144
[Rope3_Seg02]
28 139.999924 -0.000119 0.000060 1.162595 0.916321 -1.418480 139.999924
29 139.999924 -0.000119 0.000060 1.442729 3.800634 1.222442 139.999924
[Rope3_Seg03]
28 139.999924 -0.000119 0.000119 1.282661 1.029477 -1.668552 139.999924
29 139.999924 -0.000119 0.000119 2.005934 4.574872 1.349155 139.999924
[Rope3_Seg04]
28 139.999924 0.000119 0.000000 1.794221 2.005188 -1.886447 139.999924
29 139.999924 0.000119 0.000000 3.581790 6.991691 2.134202 139.999924
[Rope3_Seg05]
28 139.999924 -0.000238 0.000060 2.952805 3.595513 -2.331156 139.999924
29 139.999924 -0.000238 0.000060 8.081302 11.326974 3.201074 139.999924
[Rope3_Seg06]
28 139.999893 -0.000119 -0.000060 -0.095661 -3.202303 -3.068490 139.999893
29 139.999893 -0.000119 -0.000060 0.836268 -0.594698 -1.639802 139.999893
[Rope3_Seg07]
28 139.999771 0.000060 -0.000119 -1.776133 -8.218702 -2.871296 139.999771
29 139.999771 0.000060 -0.000119 -5.190655 -12.949889 -4.657190 139.999771
[Rope3_Seg08]
28 139.999985 -0.000060 0.000000 -0.195546 -4.262320 -2.282669 139.999985
29 139.999985 -0.000060 0.000000 -1.135865 -6.344535 -3.438061 139.999985
[Rope3_Seg09]
28 90.185997 -0.000179 -0.000060 89.793228 -1.359877 -0.847183 90.185997
29 90.185997 -0.000179 -0.000060 89.793228 -1.359877 -0.847183 90.185997
[R_rear_hand01]
28 103.366196 -6.073594 -10.757982 -161.551193 16.666374 -30.088671 104.101845
29 103.366196 -6.073594 -10.757982 -161.551193 16.666374 -30.088671 104.101845
[R_rear_hand02]
28 100.509819 12.039542 -7.992327 -34.280552 19.289745 28.875523 101.543350
29 100.509819 12.039542 -7.992327 -34.280552 19.289745 28.875523 101.543350
[R_rear_hand03]
28 101.539970 5.215704 5.435467 83.366440 -30.933914 7.284830 101.819031
29 101.539970 5.215704 5.435467 83.366440 -30.933914 7.284830 101.819031
[Rope4_Seg01]
28 0.000010 -0.000542 -0.000153 42.793167 19.112061 63.689556 0.000563
29 0.000010 -0.000565 -0.000153 50.635052 18.023212 89.821930 0.000585
[Rope4_Seg02]
28 139.999985 0.000060 0.000119 0.970918 -6.614083 5.020093 139.999985
29 139.999985 0.000060 0.000119 1.584929 -18.913652 -9.513803 139.999985
[Rope4_Seg03]
28 139.999924 0.000000 -0.000238 0.850208 -4.550992 2.066598 139.999924
29 139.999924 0.000000 -0.000238 0.732870 -12.101460 -6.281085 139.999924
[Rope4_Seg04]
28 139.999985 0.000000 0.000119 0.682075 -3.318206 0.936799 139.999985
29 139.999985 0.000000 0.000119 0.283117 -8.245282 -4.522324 139.999985
[Rope4_Seg05]
28 139.999802 -0.000060 -0.000119 0.394906 0.866543 1.636816 139.999802
29 139.999802 -0.000060 -0.000119 0.308471 -0.967685 -0.020760 139.999802
[Rope4_Seg06]
28 139.999924 0.000000 0.000060 0.340608 4.560560 2.916018 139.999924
29 139.999924 0.000000 0.000060 0.764599 3.766092 3.179347 139.999924
[Rope4_Seg07]
28 139.999802 0.000000 0.000000 0.430661 6.795077 4.051080 139.999802
29 139.999802 0.000000 0.000000 1.304489 8.728036 6.712106 139.999802
[Rope4_Seg08]
28 139.999924 0.000000 0.000119 -1.350042 4.213276 2.956624 139.999924
29 139.999924 0.000000 0.000119 -1.020689 5.147785 4.145153 139.999924
[Rope4_Seg09]
28 90.185791 0.000060 0.000060 -135.617828 2.228885 0.850567 90.185791
29 90.185791 0.000060 0.000060 -135.617828 2.228885 0.850567 90.185791
[L_rear_hand01]
28 101.696655 -8.392275 -7.654577 -34.454281 -18.946800 151.655121 102.329041
29 101.696655 -8.392275 -7.654577 -34.454281 -18.946800 151.655121 102.329041
[L_rear_hand02]
28 102.726799 -1.568258 5.773216 83.407906 30.330435 172.796509 102.900848
29 102.726799 -1.568258 5.773216 83.407906 30.330435 172.796509 102.900848
[L_rear_hand03]
28 104.552910 9.721220 -10.420293 -161.379868 -16.473232 -150.512238 105.519653
29 104.552910 9.721220 -10.420293 -161.379868 -16.473232 -150.512238 105.519653
